<svg id="图层_1" data-name="图层 1" xmlns="http://www.w3.org/2000/svg" viewBox="0 0 692.5 107"><defs><style>.cls-1{fill:#fff;stroke:#4598ee;stroke-miterlimit:10;stroke-width:3px;}.cls-2{fill:#ec4452;}.cls-3{fill:#4598ee;}.cls-4{fill:#febf3a;}.cls-5{fill:#1ecad9;}</style></defs><title>画板 2</title><rect class="cls-1" x="3.83" y="12.38" width="684.17" height="82.54" rx="41.27" ry="41.27"/><circle class="cls-1" cx="54.68" cy="53.65" r="50.85"/><path class="cls-2" d="M83.21,61.64c.44-.54,1.39-1.48,1.39-1.48A9.4,9.4,0,0,1,88.24,58a3.51,3.51,0,0,0,1.69-1.15h0a4.12,4.12,0,0,0-.4-5.81L73.92,38.43a4.12,4.12,0,0,0-5.76.81l-3.9,4.81-5.08,6.27-2.49,3.08a.29.29,0,0,0,0,.4l2.87,2.32h0L75.19,68.78h0l7.17,5.8a.27.27,0,0,0,.27,0A10.62,10.62,0,0,1,83.21,61.64Z"/><path class="cls-3" d="M62.67,25.11c-.54-.44-1.48-1.39-1.48-1.39a9.4,9.4,0,0,1-2.13-3.64,3.51,3.51,0,0,0-1.15-1.69h0a4.12,4.12,0,0,0-5.81.4L39.46,34.41a4.12,4.12,0,0,0,.81,5.76l4.81,3.9,6.27,5.08,3.08,2.49a.29.29,0,0,0,.4,0l2.32-2.87h0L69.81,33.14h0L75.62,26a.27.27,0,0,0,0-.27A10.62,10.62,0,0,1,62.67,25.11Z"/><path class="cls-4" d="M26.14,45.66c-.44.54-1.39,1.48-1.39,1.48a9.4,9.4,0,0,1-3.64,2.13,3.51,3.51,0,0,0-1.69,1.15h0a4.12,4.12,0,0,0,.4,5.81L35.44,68.87a4.12,4.12,0,0,0,5.76-.81l3.9-4.81L50.18,57l2.49-3.08a.29.29,0,0,0,0-.4l-2.87-2.32h0L34.17,38.52h0L27,32.71a.27.27,0,0,0-.27,0A10.62,10.62,0,0,1,26.14,45.66Z"/><path class="cls-5" d="M46.69,82.19c.54.44,1.48,1.39,1.48,1.39a9.4,9.4,0,0,1,2.13,3.64,3.51,3.51,0,0,0,1.15,1.69h0a4.12,4.12,0,0,0,5.81-.4L69.89,72.89a4.12,4.12,0,0,0-.81-5.76l-4.81-3.9L58,58.15l-3.08-2.49a.29.29,0,0,0-.4,0l-2.32,2.87h0L39.54,74.16h0l-5.8,7.17a.27.27,0,0,0,0,.27A10.62,10.62,0,0,1,46.69,82.19Z"/></svg>